<mxfile host="65bd71144e">
    <diagram id="Ht1M8jgEwFfnCIfOTk4-" name="Page-1">
        <mxGraphModel dx="644" dy="871" grid="1" gridSize="10" guides="1" tooltips="1" connect="1" arrows="1" fold="1" page="1" pageScale="1" pageWidth="1169" pageHeight="827" background="none" math="0" shadow="0">
            <root>
                <mxCell id="0"/>
                <mxCell id="1" parent="0"/>
                <mxCell id="JksMLo7XHdK7YqopH5MI-1" value="&lt;div&gt;Auth Service&lt;/div&gt;" style="points=[[0,0],[0.25,0],[0.5,0],[0.75,0],[1,0],[1,0.25],[1,0.5],[1,0.75],[1,1],[0.75,1],[0.5,1],[0.25,1],[0,1],[0,0.75],[0,0.5],[0,0.25]];outlineConnect=0;gradientColor=none;html=1;whiteSpace=wrap;fontSize=12;fontStyle=0;container=1;pointerEvents=0;collapsible=0;recursiveResize=0;shape=mxgraph.aws4.group;grIcon=mxgraph.aws4.group_aws_cloud_alt;strokeColor=#232F3E;fillColor=none;verticalAlign=top;align=left;spacingLeft=30;fontColor=#232F3E;dashed=0;labelBackgroundColor=#FFFFFF;" parent="1" vertex="1">
                    <mxGeometry x="230" y="100" width="640" height="350" as="geometry"/>
                </mxCell>
                <mxCell id="JksMLo7XHdK7YqopH5MI-5" value="&lt;div&gt;Auth Lambda&lt;/div&gt;" style="sketch=0;outlineConnect=0;fontColor=#232F3E;gradientColor=none;strokeColor=#ffffff;fillColor=#232F3E;dashed=0;verticalLabelPosition=middle;verticalAlign=bottom;align=center;html=1;whiteSpace=wrap;fontSize=10;fontStyle=1;spacing=3;shape=mxgraph.aws4.productIcon;prIcon=mxgraph.aws4.lambda;" parent="JksMLo7XHdK7YqopH5MI-1" vertex="1">
                    <mxGeometry x="296" y="230" width="80" height="100" as="geometry"/>
                </mxCell>
                <mxCell id="JksMLo7XHdK7YqopH5MI-6" value="&lt;div&gt;DynamoDB&lt;/div&gt;&lt;div&gt;Auth Table&lt;/div&gt;" style="sketch=0;outlineConnect=0;fontColor=#232F3E;gradientColor=none;strokeColor=#ffffff;fillColor=#232F3E;dashed=0;verticalLabelPosition=middle;verticalAlign=bottom;align=center;html=1;whiteSpace=wrap;fontSize=10;fontStyle=1;spacing=3;shape=mxgraph.aws4.productIcon;prIcon=mxgraph.aws4.dynamodb;" parent="JksMLo7XHdK7YqopH5MI-1" vertex="1">
                    <mxGeometry x="541" y="225.5" width="80" height="110" as="geometry"/>
                </mxCell>
                <mxCell id="JksMLo7XHdK7YqopH5MI-9" value="&lt;div&gt;Secrets Manager&lt;/div&gt;" style="sketch=0;outlineConnect=0;fontColor=#232F3E;gradientColor=none;strokeColor=#ffffff;fillColor=#232F3E;dashed=0;verticalLabelPosition=middle;verticalAlign=bottom;align=center;html=1;whiteSpace=wrap;fontSize=10;fontStyle=1;spacing=3;shape=mxgraph.aws4.productIcon;prIcon=mxgraph.aws4.secrets_manager;" parent="JksMLo7XHdK7YqopH5MI-1" vertex="1">
                    <mxGeometry x="541" y="21" width="80" height="109" as="geometry"/>
                </mxCell>
                <mxCell id="JksMLo7XHdK7YqopH5MI-11" value="AWS Certificate Manager" style="sketch=0;outlineConnect=0;fontColor=#232F3E;gradientColor=none;strokeColor=#ffffff;fillColor=#232F3E;dashed=0;verticalLabelPosition=middle;verticalAlign=bottom;align=center;html=1;whiteSpace=wrap;fontSize=10;fontStyle=1;spacing=3;shape=mxgraph.aws4.productIcon;prIcon=mxgraph.aws4.certificate_manager_3;" parent="JksMLo7XHdK7YqopH5MI-1" vertex="1">
                    <mxGeometry x="296" y="21" width="80" height="110" as="geometry"/>
                </mxCell>
                <mxCell id="JksMLo7XHdK7YqopH5MI-12" value="&lt;div&gt;&lt;br&gt;&lt;/div&gt;&lt;div&gt;API Gateway&lt;/div&gt;" style="sketch=0;outlineConnect=0;fontColor=#232F3E;gradientColor=none;strokeColor=#ffffff;fillColor=#232F3E;dashed=0;verticalLabelPosition=middle;verticalAlign=bottom;align=center;html=1;whiteSpace=wrap;fontSize=10;fontStyle=1;spacing=3;shape=mxgraph.aws4.productIcon;prIcon=mxgraph.aws4.api_gateway;" parent="JksMLo7XHdK7YqopH5MI-1" vertex="1">
                    <mxGeometry x="23.5" y="230" width="80" height="101" as="geometry"/>
                </mxCell>
                <mxCell id="JksMLo7XHdK7YqopH5MI-15" value="&lt;div style=&quot;font-size: 10px;&quot;&gt;Custom Domain&lt;/div&gt;" style="image;aspect=fixed;html=1;points=[];align=center;fontSize=10;image=img/lib/azure2/app_services/App_Service_Domains.svg;fontStyle=1;fontColor=#232F3E;labelBackgroundColor=#FFFFFF;labelBorderColor=#FFFFFF;" parent="JksMLo7XHdK7YqopH5MI-1" vertex="1">
                    <mxGeometry x="31" y="50" width="65" height="52" as="geometry"/>
                </mxCell>
                <mxCell id="JksMLo7XHdK7YqopH5MI-16" value="SSL Certificate" style="image;sketch=0;aspect=fixed;points=[];align=center;fontSize=10;image=img/lib/mscae/Certificate.svg;fontColor=#232F3E;labelBackgroundColor=#FFFFFF;spacingTop=0;spacingLeft=0;verticalAlign=top;html=1;fontStyle=1;labelBorderColor=#FFFFFF;" parent="JksMLo7XHdK7YqopH5MI-1" vertex="1">
                    <mxGeometry x="171" y="30" width="50" height="42" as="geometry"/>
                </mxCell>
                <mxCell id="JksMLo7XHdK7YqopH5MI-21" value="" style="edgeStyle=orthogonalEdgeStyle;html=1;endArrow=block;elbow=vertical;startArrow=block;startFill=1;endFill=1;strokeColor=#545B64;rounded=0;" parent="JksMLo7XHdK7YqopH5MI-1" target="JksMLo7XHdK7YqopH5MI-12" edge="1">
                    <mxGeometry width="100" relative="1" as="geometry">
                        <mxPoint x="63" y="125" as="sourcePoint"/>
                        <mxPoint x="63" y="215" as="targetPoint"/>
                    </mxGeometry>
                </mxCell>
                <mxCell id="JksMLo7XHdK7YqopH5MI-22" value="" style="edgeStyle=orthogonalEdgeStyle;html=1;endArrow=block;elbow=vertical;startArrow=block;startFill=1;endFill=1;strokeColor=#545B64;rounded=0;" parent="JksMLo7XHdK7YqopH5MI-1" source="JksMLo7XHdK7YqopH5MI-12" target="JksMLo7XHdK7YqopH5MI-5" edge="1">
                    <mxGeometry width="100" relative="1" as="geometry">
                        <mxPoint x="161" y="200" as="sourcePoint"/>
                        <mxPoint x="261" y="200" as="targetPoint"/>
                    </mxGeometry>
                </mxCell>
                <mxCell id="JksMLo7XHdK7YqopH5MI-26" value="" style="edgeStyle=orthogonalEdgeStyle;html=1;endArrow=none;elbow=vertical;startArrow=block;startFill=1;strokeColor=#545B64;rounded=0;" parent="JksMLo7XHdK7YqopH5MI-1" source="JksMLo7XHdK7YqopH5MI-15" target="JksMLo7XHdK7YqopH5MI-11" edge="1">
                    <mxGeometry width="100" relative="1" as="geometry">
                        <mxPoint x="221" y="200" as="sourcePoint"/>
                        <mxPoint x="321" y="200" as="targetPoint"/>
                    </mxGeometry>
                </mxCell>
                <mxCell id="JksMLo7XHdK7YqopH5MI-27" value="" style="edgeStyle=orthogonalEdgeStyle;html=1;endArrow=none;elbow=vertical;startArrow=block;startFill=1;strokeColor=#545B64;rounded=0;" parent="JksMLo7XHdK7YqopH5MI-1" source="JksMLo7XHdK7YqopH5MI-5" target="JksMLo7XHdK7YqopH5MI-9" edge="1">
                    <mxGeometry width="100" relative="1" as="geometry">
                        <mxPoint x="221" y="200" as="sourcePoint"/>
                        <mxPoint x="321" y="200" as="targetPoint"/>
                        <Array as="points">
                            <mxPoint x="336" y="180"/>
                            <mxPoint x="581" y="180"/>
                        </Array>
                    </mxGeometry>
                </mxCell>
                <mxCell id="JksMLo7XHdK7YqopH5MI-32" value="" style="edgeStyle=orthogonalEdgeStyle;html=1;endArrow=block;elbow=vertical;startArrow=block;startFill=1;endFill=1;strokeColor=#545B64;rounded=0;" parent="JksMLo7XHdK7YqopH5MI-1" source="JksMLo7XHdK7YqopH5MI-5" target="JksMLo7XHdK7YqopH5MI-6" edge="1">
                    <mxGeometry width="100" relative="1" as="geometry">
                        <mxPoint x="221" y="220" as="sourcePoint"/>
                        <mxPoint x="321" y="220" as="targetPoint"/>
                    </mxGeometry>
                </mxCell>
                <mxCell id="JksMLo7XHdK7YqopH5MI-33" value="&lt;div style=&quot;font-size: 11px;&quot;&gt;&lt;font style=&quot;font-size: 10px;&quot;&gt;&lt;b&gt;Authenticate User&lt;/b&gt;&lt;/font&gt;&lt;/div&gt;" style="sketch=0;outlineConnect=0;fontColor=#232F3E;gradientColor=none;fillColor=#232F3D;strokeColor=none;dashed=0;verticalLabelPosition=bottom;verticalAlign=top;align=center;html=1;fontSize=12;fontStyle=0;aspect=fixed;pointerEvents=1;shape=mxgraph.aws4.user;" parent="JksMLo7XHdK7YqopH5MI-1" vertex="1">
                    <mxGeometry x="441" y="234" width="40" height="40" as="geometry"/>
                </mxCell>
                <mxCell id="JksMLo7XHdK7YqopH5MI-18" value="&lt;div style=&quot;font-size: 10px;&quot;&gt;Frontend Client&lt;/div&gt;" style="sketch=0;outlineConnect=0;fontColor=#232F3E;gradientColor=none;fillColor=#232F3D;strokeColor=none;dashed=0;verticalLabelPosition=bottom;verticalAlign=top;align=center;html=1;fontSize=10;fontStyle=1;aspect=fixed;pointerEvents=1;shape=mxgraph.aws4.client;labelBackgroundColor=#FFFFFF;labelBorderColor=#FFFFFF;" parent="1" vertex="1">
                    <mxGeometry x="60" y="237" width="78" height="76" as="geometry"/>
                </mxCell>
                <mxCell id="JksMLo7XHdK7YqopH5MI-20" value="" style="edgeStyle=orthogonalEdgeStyle;html=1;endArrow=block;elbow=vertical;startArrow=block;startFill=1;endFill=1;strokeColor=#545B64;rounded=0;" parent="1" source="JksMLo7XHdK7YqopH5MI-18" target="JksMLo7XHdK7YqopH5MI-1" edge="1">
                    <mxGeometry width="100" relative="1" as="geometry">
                        <mxPoint x="540" y="220" as="sourcePoint"/>
                        <mxPoint x="640" y="220" as="targetPoint"/>
                    </mxGeometry>
                </mxCell>
                <mxCell id="JksMLo7XHdK7YqopH5MI-30" value="&lt;div style=&quot;font-size: 11px;&quot;&gt;&lt;font style=&quot;font-size: 10px;&quot;&gt;&lt;b&gt;JWT Secret&lt;/b&gt;&lt;/font&gt;&lt;/div&gt;" style="points=[[0,0.5,0],[0.24,0,0],[0.5,0.28,0],[0.995,0.475,0],[0.5,0.72,0],[0.24,1,0]];verticalLabelPosition=bottom;sketch=0;html=1;verticalAlign=top;aspect=fixed;align=center;pointerEvents=1;shape=mxgraph.cisco19.key;fillColor=#005073;strokeColor=none;fontColor=#232F3E;" parent="1" vertex="1">
                    <mxGeometry x="671" y="253" width="50" height="22.5" as="geometry"/>
                </mxCell>
            </root>
        </mxGraphModel>
    </diagram>
</mxfile>